<svg width="80" height="80" viewBox="0 0 80 80" fill="none" xmlns="http://www.w3.org/2000/svg">
    <!-- Ticket Base -->
    <rect x="15" y="25" width="50" height="30" rx="4" stroke="#FFD700" stroke-width="2"/>
    
    <!-- Ticket Details -->
    <path d="M15 35H65" stroke="#FFD700" stroke-width="2" stroke-dasharray="2 2"/>
    <path d="M15 45H65" stroke="#FFD700" stroke-width="2" stroke-dasharray="2 2"/>
    
    <!-- Star Icons -->
    <path d="M25 32L27 30L29 32L27 34L25 32Z" fill="#FFD700"/>
    <path d="M25 42L27 40L29 42L27 44L25 42Z" fill="#FFD700"/>
    
    <!-- Text Lines -->
    <rect x="35" y="29" width="20" height="2" rx="1" fill="#FFD700" fill-opacity="0.5"/>
    <rect x="35" y="39" width="20" height="2" rx="1" fill="#FFD700" fill-opacity="0.5"/>
    
    <!-- Decorative Corner -->
    <path d="M15 29C15 26.7909 16.7909 25 19 25L21 25L21 27L19 27C17.8954 27 17 27.8954 17 29L17 31L15 31L15 29Z" fill="#FFD700"/>
    <path d="M65 51C65 53.2091 63.2091 55 61 55L59 55L59 53L61 53C62.1046 53 63 52.1046 63 51L63 49L65 49L65 51Z" fill="#FFD700"/>
</svg> 