<svg width="80" height="80" viewBox="0 0 80 80" fill="none" xmlns="http://www.w3.org/2000/svg">
    <!-- Network Nodes -->
    <circle cx="40" cy="40" r="8" fill="#FFD700"/>
    <circle cx="20" cy="30" r="6" fill="#FFD700" fill-opacity="0.6"/>
    <circle cx="60" cy="30" r="6" fill="#FFD700" fill-opacity="0.6"/>
    <circle cx="20" cy="50" r="6" fill="#FFD700" fill-opacity="0.6"/>
    <circle cx="60" cy="50" r="6" fill="#FFD700" fill-opacity="0.6"/>
    
    <!-- Connection Lines -->
    <path d="M26 30L34 35" stroke="#FFD700" stroke-width="2"/>
    <path d="M54 30L46 35" stroke="#FFD700" stroke-width="2"/>
    <path d="M26 50L34 45" stroke="#FFD700" stroke-width="2"/>
    <path d="M54 50L46 45" stroke="#FFD700" stroke-width="2"/>
    
    <!-- License Badge -->
    <path d="M35 60H45C46.1046 60 47 59.1046 47 58V56C47 54.8954 46.1046 54 45 54H35C33.8954 54 33 54.8954 33 56V58C33 59.1046 33.8954 60 35 60Z" 
          fill="#FFD700" fill-opacity="0.2" stroke="#FFD700" stroke-width="2"/>
</svg> 