<?xml version="1.0" encoding="UTF-8"?>
<svg id="Capa_2" data-name="Capa 2" xmlns="http://www.w3.org/2000/svg" viewBox="0 0 128 128">
  <defs>
    <style>
      .cls-1 {
        fill: #fff;
      }
    </style>
  </defs>
  <g id="Capa_2-2" data-name="Capa 2">
    <path class="cls-1" d="m64,128c-10.86,0-20.85-2.47-29.96-7.42-9.12-4.95-16.58-11.54-22.4-19.78v15.56H0v-34.91h34.91v11.64h-14.4c4.65,6.98,10.79,12.61,18.4,16.87,7.61,4.27,15.98,6.4,25.09,6.4,7.27,0,14.08-1.38,20.44-4.15,6.35-2.76,11.88-6.5,16.58-11.2,4.7-4.7,8.44-10.23,11.2-16.58,2.76-6.35,4.15-13.16,4.15-20.44h11.64c0,8.82-1.67,17.12-5.02,24.87-3.35,7.76-7.93,14.55-13.75,20.36s-12.61,10.4-20.36,13.75-16.05,5.02-24.87,5.02Zm-5.24-23.27v-7.56c-4.56-1.07-8.27-3.03-11.13-5.89-2.86-2.86-4.97-6.62-6.33-11.27l9.6-3.78c1.16,3.98,2.98,6.96,5.45,8.95s5.31,2.98,8.51,2.98,5.94-.75,8.22-2.25c2.28-1.5,3.42-3.85,3.42-7.05,0-2.81-1.19-5.09-3.56-6.84-2.38-1.75-6.62-3.73-12.73-5.96-5.72-2.04-9.92-4.46-12.58-7.27-2.67-2.81-4-6.5-4-11.05,0-3.98,1.38-7.59,4.15-10.84,2.76-3.25,6.52-5.36,11.27-6.33v-7.27h10.18v7.27c3.49.29,6.67,1.7,9.53,4.22,2.86,2.52,4.82,5.48,5.89,8.87l-9.31,3.78c-.78-2.23-2.04-4.1-3.78-5.6-1.75-1.5-4.17-2.25-7.27-2.25-3.39,0-5.99.73-7.78,2.18-1.79,1.45-2.69,3.44-2.69,5.96s1.12,4.51,3.35,5.96c2.23,1.45,6.25,3.15,12.07,5.09,6.98,2.52,11.64,5.48,13.96,8.87,2.33,3.39,3.49,7.13,3.49,11.2,0,2.81-.48,5.28-1.45,7.42s-2.25,3.95-3.85,5.45-3.47,2.72-5.6,3.64c-2.13.92-4.41,1.62-6.84,2.11v7.27h-10.18ZM0,64c0-8.82,1.67-17.12,5.02-24.87,3.35-7.76,7.93-14.55,13.75-20.36s12.61-10.4,20.36-13.75C46.88,1.67,55.18,0,64,0c10.86,0,20.85,2.47,29.96,7.42,9.12,4.95,16.58,11.54,22.4,19.78v-15.56h11.64v34.91h-34.91v-11.64h14.4c-4.65-6.98-10.79-12.61-18.4-16.87-7.61-4.27-15.98-6.4-25.09-6.4-7.27,0-14.08,1.38-20.44,4.15-6.35,2.76-11.88,6.5-16.58,11.2-4.7,4.7-8.44,10.23-11.2,16.58-2.76,6.35-4.15,13.16-4.15,20.44H0Z"/>
  </g>
</svg>