<?xml version="1.0" encoding="UTF-8"?>
<svg id="Capa_2" data-name="Capa 2" xmlns="http://www.w3.org/2000/svg" viewBox="0 0 128 64">
  <defs>
    <style>
      .cls-1 {
        fill: #fff;
      }
    </style>
  </defs>
  <g id="Capa_2-2" data-name="Capa 2">
    <g>
      <path class="cls-1" d="m0,64v-8.4c0-3.91,1.98-7.04,5.93-9.4,3.96-2.36,9.09-3.53,15.4-3.53,1.16,0,2.27.02,3.33.07,1.07.04,2.09.16,3.07.33-1.24,1.78-2.18,3.69-2.8,5.73-.62,2.04-.93,4.22-.93,6.53v8.67H0Z"/>
      <path class="cls-1" d="m104,64v-8.67c0-2.31-.29-4.49-.87-6.53-.58-2.04-1.44-3.96-2.6-5.73.98-.18,1.98-.29,3-.33,1.02-.04,2.07-.07,3.13-.07,6.4,0,11.56,1.18,15.47,3.53,3.91,2.36,5.87,5.49,5.87,9.4v8.4h-24Z"/>
      <path class="cls-1" d="m87.2,41.33c-5.87-3.56-13.6-5.33-23.2-5.33s-17.22,1.78-23.13,5.33c-5.91,3.56-8.87,8.22-8.87,14v8.67h64v-8.67c0-5.78-2.93-10.44-8.8-14Zm-47.24,14.28l1.25-3.13c.98-2.46,3.75-4.41,8.46-5.98,4.21-1.4,9.03-2.12,14.32-2.12s10.22.71,14.4,2.12c4.63,1.56,7.4,3.49,8.49,5.89l1.45,3.22h-48.37Z"/>
      <path class="cls-1" d="m21.33,37.33c-2.93,0-5.44-1.04-7.53-3.13-2.09-2.09-3.13-4.6-3.13-7.53s1.04-5.56,3.13-7.6,4.6-3.07,7.53-3.07,5.56,1.02,7.6,3.07c2.04,2.04,3.07,4.58,3.07,7.6s-1.02,5.44-3.07,7.53-4.58,3.13-7.6,3.13Z"/>
      <path class="cls-1" d="m106.67,37.33c-2.93,0-5.44-1.04-7.53-3.13-2.09-2.09-3.13-4.6-3.13-7.53s1.04-5.56,3.13-7.6,4.6-3.07,7.53-3.07,5.56,1.02,7.6,3.07c2.04,2.04,3.07,4.58,3.07,7.6s-1.02,5.44-3.07,7.53c-2.04,2.09-4.58,3.13-7.6,3.13Z"/>
      <path class="cls-1" d="m75.4,4.6c-3.07-3.07-6.87-4.6-11.4-4.6s-8.22,1.53-11.33,4.6c-3.11,3.07-4.67,6.87-4.67,11.4s1.56,8.22,4.67,11.33c3.11,3.11,6.89,4.67,11.33,4.67s8.33-1.56,11.4-4.67c3.07-3.11,4.6-6.89,4.6-11.33s-1.53-8.33-4.6-11.4Zm-5.56,17.24c-1.57,1.57-3.52,2.36-5.84,2.36s-4.27-.79-5.84-2.36c-1.57-1.57-2.36-3.52-2.36-5.84s.79-4.27,2.36-5.84c1.57-1.57,3.52-2.36,5.84-2.36s4.27.79,5.84,2.36c1.57,1.57,2.36,3.52,2.36,5.84s-.79,4.27-2.36,5.84Z"/>
    </g>
  </g>
</svg>