<?xml version="1.0" encoding="UTF-8"?>
<svg id="Capa_2" data-name="Capa 2" xmlns="http://www.w3.org/2000/svg" viewBox="0 0 128 87.27">
  <defs>
    <style>
      .cls-1 {
        fill: #fff;
      }
    </style>
  </defs>
  <g id="Capa_2-2" data-name="Capa 2">
    <path class="cls-1" d="m64,69.82c7.27,0,13.45-2.55,18.55-7.64,5.09-5.09,7.64-11.27,7.64-18.55s-2.55-13.45-7.64-18.55c-5.09-5.09-11.27-7.64-18.55-7.64s-13.45,2.55-18.55,7.64-7.64,11.27-7.64,18.55,2.55,13.45,7.64,18.55c5.09,5.09,11.27,7.64,18.55,7.64Zm0-10.47c-4.36,0-8.07-1.53-11.13-4.58-3.05-3.05-4.58-6.76-4.58-11.13s1.53-8.07,4.58-11.13c3.05-3.05,6.76-4.58,11.13-4.58s8.07,1.53,11.13,4.58c3.05,3.05,4.58,6.76,4.58,11.13s-1.53,8.07-4.58,11.13c-3.05,3.05-6.76,4.58-11.13,4.58Zm0,27.93c-14.16,0-27.05-3.95-38.69-11.85C13.67,67.52,5.24,56.92,0,43.64c5.24-13.28,13.67-23.88,25.31-31.78C36.95,3.95,49.84,0,64,0s27.05,3.95,38.69,11.85c11.64,7.9,20.07,18.5,25.31,31.78-5.24,13.28-13.67,23.88-25.31,31.78-11.64,7.9-24.53,11.85-38.69,11.85Zm0-11.64c10.96,0,21.02-2.88,30.18-8.65s16.17-13.55,21.02-23.35c-4.85-9.79-11.85-17.58-21.02-23.35-9.16-5.77-19.22-8.65-30.18-8.65s-21.02,2.88-30.18,8.65c-9.16,5.77-16.17,13.55-21.02,23.35,4.85,9.79,11.85,17.58,21.02,23.35,9.16,5.77,19.22,8.65,30.18,8.65Z"/>
  </g>
</svg>