<?xml version="1.0" encoding="UTF-8"?>
<svg id="Capa_2" data-name="Capa 2" xmlns="http://www.w3.org/2000/svg" viewBox="0 0 128 128">
  <defs>
    <style>
      .cls-1 {
        fill: #fff;
      }
    </style>
  </defs>
  <g id="Capa_2-2" data-name="Capa 2">
    <path class="cls-1" d="m12.8,128c-3.52,0-6.53-1.25-9.04-3.76-2.51-2.51-3.76-5.52-3.76-9.04V38.4c0-3.52,1.25-6.53,3.76-9.04s5.52-3.76,9.04-3.76h25.6L64,0l25.6,25.6h25.6c3.52,0,6.53,1.25,9.04,3.76,2.51,2.51,3.76,5.52,3.76,9.04v76.8c0,3.52-1.25,6.53-3.76,9.04s-5.52,3.76-9.04,3.76H12.8Zm0-12.8h102.4V38.4H12.8v76.8Zm12.8-12.8h76.8l-24-32-19.2,25.6-14.4-19.2-19.2,25.6Zm73.6-32c2.67,0,4.93-.93,6.8-2.8,1.87-1.87,2.8-4.13,2.8-6.8s-.93-4.93-2.8-6.8c-1.87-1.87-4.13-2.8-6.8-2.8s-4.93.93-6.8,2.8-2.8,4.13-2.8,6.8.93,4.93,2.8,6.8c1.87,1.87,4.13,2.8,6.8,2.8ZM51.84,25.6h24.32l-12.16-12.16-12.16,12.16ZM12.8,115.2V38.4v76.8Z"/>
  </g>
</svg>