<?xml version="1.0" encoding="UTF-8"?>
<svg id="Capa_2" data-name="Capa 2" xmlns="http://www.w3.org/2000/svg" viewBox="0 0 128 135.11">
  <defs>
    <style>
      .cls-1 {
        fill: #fff;
      }
    </style>
  </defs>
  <g id="Capa_2-2" data-name="Capa 2">
    <path class="cls-1" d="m95.29,135.11l-9.96-9.96,11.2-11.38-11.2-11.2,9.96-10.13,11.38,11.38,11.2-11.38,10.13,10.13-11.38,11.2,11.38,11.38-10.13,9.96-11.2-11.2-11.38,11.2Zm-73.96-14.22c2.01,0,3.7-.68,5.07-2.04,1.36-1.36,2.04-3.05,2.04-5.07s-.68-3.7-2.04-5.07c-1.36-1.36-3.05-2.04-5.07-2.04s-3.7.68-5.07,2.04-2.04,3.05-2.04,5.07.68,3.7,2.04,5.07c1.36,1.36,3.05,2.04,5.07,2.04Zm0,14.22c-5.93,0-10.96-2.07-15.11-6.22-4.15-4.15-6.22-9.19-6.22-15.11s2.07-10.96,6.22-15.11c4.15-4.15,9.19-6.22,15.11-6.22,4.39,0,8.39,1.21,12,3.64,3.61,2.43,6.25,5.72,7.91,9.87,4.62-1.3,8.39-3.85,11.29-7.64,2.9-3.79,4.36-8.12,4.36-12.98v-28.44c0-9.84,3.47-18.22,10.4-25.16,6.93-6.93,15.32-10.4,25.16-10.4h8.18l-11.2-11.2L99.56,0l28.44,28.44-28.44,28.44-10.13-9.96,11.2-11.38h-8.18c-5.93,0-10.96,2.07-15.11,6.22-4.15,4.15-6.22,9.19-6.22,15.11v28.44c0,8.65-2.79,16.27-8.36,22.84-5.57,6.58-12.62,10.64-21.16,12.18-1.42,4.39-4,7.94-7.73,10.67-3.73,2.73-7.91,4.09-12.53,4.09ZM9.96,49.78L0,39.82l11.2-11.38L0,17.24,9.96,7.11l11.38,11.38,11.2-11.38,10.13,10.13-11.38,11.2,11.38,11.38-10.13,9.96-11.2-11.2-11.38,11.2Z"/>
  </g>
</svg>