<?xml version="1.0" encoding="UTF-8"?>
<svg id="Capa_2" data-name="Capa 2" xmlns="http://www.w3.org/2000/svg" viewBox="0 0 128 122.18">
  <defs>
    <style>
      .cls-1 {
        fill: #fff;
      }
    </style>
  </defs>
  <g id="Capa_2-2" data-name="Capa 2">
    <path class="cls-1" d="m9.45,94.11l-9.45-6.84,29.09-46.55,17.45,20.36,23.27-37.82,15.85,23.71c-2.23.1-4.34.36-6.33.8-1.99.44-3.95,1.04-5.89,1.82l-3.2-4.8-22.11,35.93-17.6-20.51-21.09,33.89Zm110.25,28.07l-18.18-18.18c-1.94,1.36-4.1,2.38-6.47,3.05-2.38.68-4.82,1.02-7.35,1.02-7.27,0-13.45-2.55-18.55-7.64-5.09-5.09-7.64-11.27-7.64-18.55s2.55-13.45,7.64-18.55c5.09-5.09,11.27-7.64,18.55-7.64s13.45,2.55,18.55,7.64,7.64,11.27,7.64,18.55c0,2.52-.34,4.97-1.02,7.35-.68,2.38-1.7,4.58-3.05,6.62l18.18,18.04-8.29,8.29Zm-32-25.75c4.07,0,7.52-1.41,10.33-4.22,2.81-2.81,4.22-6.25,4.22-10.33s-1.41-7.52-4.22-10.33c-2.81-2.81-6.25-4.22-10.33-4.22s-7.52,1.41-10.33,4.22c-2.81,2.81-4.22,6.25-4.22,10.33s1.41,7.52,4.22,10.33c2.81,2.81,6.25,4.22,10.33,4.22Zm12.95-46.55c-1.84-.78-3.76-1.41-5.75-1.89s-4.05-.78-6.18-.87L118.55,0l9.45,6.84-27.35,43.05Z"/>
  </g>
</svg>