<?xml version="1.0" encoding="UTF-8"?>
<svg id="Capa_2" data-name="Capa 2" xmlns="http://www.w3.org/2000/svg" viewBox="0 0 127.9 20.02">
  <defs>
    <style>
      .cls-1 {
        fill: #fff;
      }
    </style>
  </defs>
  <g id="Capa_1-2" data-name="Capa 1">
    <g>
      <path class="cls-1" d="m0,20.02c0-.11,0-.22,0-.33C0,13.21,0,6.73,0,.25Q0,0,.25,0c6.55,0,13.1,0,19.65,0,.02,0,.04,0,.07,0,.18,0,.19.02.19.2,0,.17-.02.35-.02.52,0,6.34,0,12.68,0,19.02,0,.1,0,.19,0,.29H0Zm10.45-4.19c-.22,0-.45,0-.67,0-.31,0-.61-.05-.9-.16-.48-.18-.71-.52-.67-.98.03-.38.1-.74.19-1.11.26-1.01.54-2.01.81-3.01.34-1.26.68-2.52,1.03-3.78.19-.67.37-1.35.64-1.99.19-.44.49-.74.97-.83.22-.04.44-.06.66-.08.25-.02.25-.03.3-.27.03-.12,0-.15-.12-.15-.13,0-.26.05-.39.05-.64,0-1.28.03-1.92.05-.57.02-1.14-.03-1.71-.03-.04,0-.08,0-.12-.01-.36-.03-.72.02-1.07-.06-.07-.02-.11.02-.12.1-.06.31-.07.31.25.31.03,0,.06,0,.09,0,.26.02.52.04.77.11.34.09.59.36.49.79-.09.39-.22.77-.31,1.16-.18.74-.42,1.46-.6,2.2-.21.83-.44,1.65-.67,2.48-.27,1-.54,2-.81,2.99-.13.45-.26.91-.45,1.34-.2.48-.56.77-1.08.85-.22.03-.44.04-.66.03-.14,0-.23.12-.23.33,0,.14.13.06.19.08.05.01.1,0,.16,0,.79-.07,1.58-.08,2.38-.09.82,0,1.63.01,2.45.02.5,0,1,0,1.5.02.93.04,1.87-.03,2.8.05.38.03.77,0,1.16,0,.13,0,.19-.05.22-.17.25-.94.5-1.87.75-2.81.07-.27.07-.27-.21-.26-.08,0-.14,0-.17.1-.16.47-.42.88-.7,1.28-.18.25-.36.5-.61.7-.59.46-1.27.63-1.99.7-.54.05-1.08.06-1.63.05Z"/>
      <path class="cls-1" d="m23.82,20.02c0-.3-.02-.6-.02-.9,0-.17.02-.2.2-.2.43,0,.86,0,1.29,0,5.39,0,10.79,0,16.18,0,.92,0,1.85,0,2.77,0,.76,0,1.52.01,2.27.01,18.93,0,37.85,0,56.78.02,1.04,0,2.09,0,3.13.02.12,0,.18.04.2.16.01.07,0,.15,0,.22-.02.14-.03.27.06.39.02.02.03.05.02.07-.06.1,0,.15.07.21H23.82Z"/>
      <path class="cls-1" d="m127.9,6.92c-.23.01-.45.02-.68.05-.66.09-.91.43-1,1.07-.05.38-.05.77-.05,1.15,0,2.2,0,4.39,0,6.59,0,.2,0,.4.02.6,0,.1-.03.16-.14.15-.1,0-.21,0-.31.01-.17.03-.28-.05-.38-.17-.56-.68-1.11-1.37-1.7-2.03-.85-.97-1.66-1.98-2.51-2.95-.54-.61-1.04-1.26-1.58-1.88-.29-.34-.57-.68-.85-1.01-.01-.02-.03-.03-.05-.05-.04.05-.02.1-.02.14,0,1.9,0,3.8,0,5.7,0,.25.03.5.1.74.12.43.4.68.85.75.23.03.46.05.69.07.04,0,.08,0,.09.04.04.13.03.26,0,.39,0,.05-.05.04-.1.04-.93-.03-1.87-.1-2.8-.05-.38.02-.76.02-1.14.05-.11,0-.15-.03-.13-.13.05-.4-.06-.31.36-.35.27-.03.53-.04.78-.16.16-.07.28-.18.37-.34.17-.3.21-.64.22-.97,0-1.08,0-2.17,0-3.25,0-1.07,0-2.14,0-3.21,0-.25-.1-.4-.28-.53-.34-.24-.71-.37-1.12-.41-.04,0-.08,0-.12-.02-.06-.02-.16.03-.18-.06-.03-.12-.03-.25,0-.37.02-.06.08-.04.13-.04.61.02,1.23.04,1.84.03.29,0,.59-.02.88-.04.17-.01.27.05.37.18.61.75,1.23,1.49,1.85,2.24.63.76,1.26,1.52,1.89,2.28.72.87,1.44,1.74,2.16,2.61.02.03.04.07.08.06.05-.01.03-.07.03-.1,0-1.81,0-3.62-.01-5.44,0-.22-.05-.44-.11-.66-.12-.4-.42-.59-.81-.65-.21-.03-.42-.07-.63-.05-.12,0-.16-.04-.16-.15,0-.36-.05-.31.3-.31.65,0,1.31.03,1.96.03.56,0,1.11-.04,1.67-.03.07,0,.14,0,.21,0v.45Z"/>
      <path class="cls-1" d="m85.1,13.36c.01.45-.02.99.04,1.52.07.53.33.81.85.9.19.03.38.06.57.05.11,0,.16.04.17.15,0,.01,0,.03,0,.04.03.29.03.3-.26.29-.36-.01-.73.01-1.09-.02-.78-.06-1.56-.04-2.34-.02-.48.02-.95.01-1.43.04-.08,0-.11-.03-.11-.1,0,0,0-.02,0-.03-.01-.35-.01-.36.34-.36.15,0,.29-.02.43-.05.52-.11.75-.35.83-.88.04-.25.06-.49.06-.74,0-1.93,0-3.85,0-5.78,0-.22-.02-.44-.08-.65-.11-.45-.29-.64-.84-.74-.19-.04-.39-.06-.59-.05-.09,0-.13-.04-.13-.12,0-.04,0-.09,0-.13,0-.22.01-.23.24-.22,1.1.05,2.19.07,3.29.03.76-.02,1.52-.03,2.27-.01.74.02,1.48.13,2.16.45.69.32,1.19.83,1.3,1.62.1.7-.07,1.32-.53,1.87-.37.44-.84.69-1.37.86-.28.09-.57.13-.86.18-.13.02-.14.03-.05.14.59.71,1.18,1.42,1.79,2.11.39.45.75.91,1.15,1.35.4.44.88.74,1.49.77.1,0,.14.05.14.14,0,.11.04.24-.02.32-.06.08-.19.01-.3.02-.36.02-.72-.05-1.09-.05-.5,0-1.01.06-1.51.06-.07,0-.12,0-.16-.06-.46-.64-.99-1.22-1.49-1.83-.56-.69-1.13-1.37-1.71-2.04-.27-.31-.57-.48-.99-.45-.13.01-.18.05-.18.18,0,.18,0,.37,0,.55,0,.21,0,.42,0,.71Zm0-4.02c0,.57,0,1.14,0,1.72,0,.06,0,.12,0,.18,0,.09.05.12.14.12.27,0,.54.02.81.02.55,0,1.07-.14,1.55-.4.43-.23.72-.58.87-1.04.13-.41.15-.82.08-1.24-.14-.84-.62-1.38-1.44-1.63-.22-.06-.44-.1-.66-.12-.33-.03-.67-.04-.99.04-.28.07-.33.13-.35.41,0,.12-.01.24-.01.37,0,.52,0,1.05,0,1.57Z"/>
      <path class="cls-1" d="m109.95,16.54c-.94.02-1.78-.11-2.57-.44-1.63-.7-2.59-1.93-2.91-3.66-.17-.94-.12-1.87.16-2.78.34-1.12,1.02-1.99,2.02-2.6.77-.47,1.63-.7,2.53-.78.86-.08,1.71-.02,2.54.19.85.21,1.58.62,2.22,1.22.79.75,1.19,1.68,1.36,2.73.13.8.14,1.61-.07,2.4-.28,1.05-.82,1.95-1.67,2.63-.7.55-1.51.86-2.39,1-.43.07-.86.12-1.22.1Zm3.21-5.17c.04-.9-.13-1.78-.43-2.64-.2-.57-.54-1.03-1.01-1.41-.73-.58-1.58-.7-2.47-.55-.56.09-1.04.36-1.44.76-.43.42-.69.95-.87,1.52-.26.84-.36,1.69-.34,2.57.02.78.13,1.55.4,2.28.19.52.46,1,.86,1.38.73.69,1.61.9,2.58.74,1.1-.19,1.81-.87,2.23-1.87.37-.88.53-1.81.5-2.78Z"/>
      <path class="cls-1" d="m26.28,10.1c.01,1,.13,1.99.47,2.95.3.83.76,1.55,1.44,2.12.58.48,1.26.72,2,.82.52.07,1.04.07,1.56-.05.93-.22,1.66-.73,2.2-1.52.51-.75.78-1.59,1.01-2.45.05-.17.24-.26.41-.18.06.03.06.08.05.14,0,.22-.02.44-.02.65,0,.93,0,1.86,0,2.79,0,.17,0,.35,0,.52,0,.06.02.15-.07.16-.09.01-.2.04-.25-.08-.11-.23-.22-.47-.34-.7-.08-.16-.09-.16-.23-.05-.9.69-1.92,1.09-3.04,1.24-.6.08-1.21.09-1.81.03-1.05-.09-2.05-.37-2.96-.92-1.12-.68-1.91-1.62-2.39-2.82-.29-.72-.43-1.48-.48-2.26-.05-.79.03-1.57.22-2.34.2-.82.54-1.58,1.06-2.25,1.11-1.42,2.57-2.25,4.36-2.51,1.1-.16,2.2-.11,3.27.22.53.16,1.03.41,1.51.71.04.03.09.06.13.09.08.05.11.03.14-.06.07-.21.14-.41.21-.62.04-.12.12-.16.28-.14.12.01.12.11.12.18.02.27,0,.55.02.82.03.54.04,1.08.06,1.62.01.34.04.69.05,1.03,0,.18,0,.19-.18.19q-.3,0-.36-.28c-.17-.79-.47-1.51-1.04-2.11-.6-.64-1.33-1.04-2.2-1.17-.91-.14-1.8-.07-2.63.36-.74.39-1.3.98-1.7,1.7-.42.77-.62,1.61-.76,2.46-.09.56-.14,1.12-.13,1.68Z"/>
      <path class="cls-1" d="m74.52,9.01c0,.57,0,1.14,0,1.72,0,.17,0,.18.18.17.4-.02.8-.02,1.19-.15.46-.16.75-.47.87-.93.08-.3.12-.6.14-.9.01-.17.02-.18.19-.17.33,0,.3-.04.29.29-.02.89-.03,1.78-.03,2.67,0,.44.04.88.03,1.32,0,.16,0,.17-.17.17-.33,0-.3.02-.32-.29-.01-.25-.06-.5-.16-.74-.16-.37-.45-.58-.84-.67-.41-.1-.83-.11-1.25-.11-.07,0-.12.02-.11.1,0,.07-.01.14-.01.21,0,.88,0,1.76,0,2.63,0,.15.01.3.04.44.09.53.44.84.95.95.91.2,1.82.18,2.72-.03.76-.18,1.18-.7,1.38-1.42.05-.19.09-.39.13-.59.02-.09.06-.13.15-.12.39.01.34-.06.33.33-.02.64-.07,1.28-.1,1.92,0,.14,0,.27,0,.41,0,.09-.04.13-.13.12-.98-.06-1.97.01-2.95-.03-1.51-.07-3.02-.03-4.52-.03-.49,0-.99,0-1.48.05-.06,0-.09-.02-.09-.08,0-.1,0-.2,0-.3,0-.09.06-.1.13-.1.2-.02.4-.02.6-.07.09-.02.18-.04.27-.07.41-.13.55-.47.58-.85.07-.78.06-1.57.04-2.35,0-.11.01-.23.01-.34,0-1.07,0-2.15,0-3.22,0-.38,0-.77-.07-1.15-.1-.49-.35-.73-.84-.8-.2-.03-.39-.06-.59-.05-.1,0-.13-.04-.13-.13,0-.37-.04-.33.32-.33,1.72.03,3.44.04,5.16.02.67,0,1.35,0,2.02-.03.31-.01.62,0,.93,0,.11,0,.11.07.11.15,0,.75,0,1.5,0,2.25,0,0,0,.02,0,.03,0,.1-.04.14-.13.13-.03,0-.06,0-.09,0-.18,0-.2-.01-.22-.2-.04-.27-.11-.54-.2-.8-.22-.65-.69-.96-1.35-1.04-.87-.11-1.74-.03-2.61-.05,0,0-.02,0-.03,0-.29.02-.34.07-.34.36,0,.57,0,1.14,0,1.72,0,0,0,0,0,0Z"/>
      <path class="cls-1" d="m41.5,12.79c-.48,0-.96,0-1.45,0-.14,0-.27-.01-.41-.02-.08,0-.13.02-.16.11-.18.57-.45,1.12-.6,1.7-.04.16-.08.31-.1.47-.03.24.1.49.31.61.22.12.46.14.7.16.07,0,.15.03.22.02.14-.01.15.07.15.18,0,.29,0,.29-.29.28-.71,0-1.42-.08-2.13-.04-.39.02-.78.05-1.17.05-.13,0-.18-.04-.16-.16,0-.03,0-.05,0-.08.01-.22.01-.22.23-.25.53-.07.92-.35,1.2-.78.38-.58.63-1.22.88-1.85.26-.68.56-1.34.85-2,.52-1.19,1.08-2.36,1.57-3.56.18-.43.37-.86.56-1.29.04-.09.09-.13.19-.12.13,0,.26,0,.39,0,.1,0,.15.03.19.12.15.38.3.77.46,1.14.55,1.32,1.09,2.65,1.64,3.97.47,1.12.91,2.25,1.39,3.37.05.12.12.24.18.36.23.44.62.6,1.09.64.09,0,.21-.03.25.07.06.12.04.26.01.4,0,.04-.04.05-.07.04-.25-.06-.5,0-.75-.03-.75-.06-1.5-.05-2.25-.04-.51,0-1.02.06-1.54.05-.17,0-.17,0-.17-.16q0-.27.26-.3c.22-.03.45-.01.67-.07.45-.11.5-.27.4-.69-.13-.54-.36-1.05-.55-1.57-.08-.2-.16-.4-.24-.61-.03-.1-.09-.12-.19-.12-.53,0-1.07,0-1.6,0h0Zm-.01-4.33c-.07.03-.07.08-.09.13-.49,1.15-.99,2.29-1.48,3.44-.06.13-.04.15.1.15.93,0,1.86,0,2.79,0,.15,0,.16-.01.1-.16-.45-1.12-.89-2.25-1.34-3.37-.03-.06-.05-.13-.08-.19Z"/>
      <path class="cls-1" d="m98.83,10.9c0,1.12,0,2.24,0,3.37,0,.23.02.45.05.68.08.5.34.76.85.83.21.03.43.05.64.07.08,0,.11.04.11.11,0,.1,0,.19,0,.29,0,.04-.01.09-.08.08-.27-.05-.53,0-.8-.02-.83-.06-1.66-.05-2.48-.04-.6,0-1.19.04-1.78.06-.07,0-.1-.02-.11-.08-.02-.11,0-.23.02-.34.01-.08.08-.07.13-.07.2,0,.4-.02.6-.06.57-.1.83-.39.87-.98.05-.78.05-1.56.04-2.34,0-.57,0-1.14,0-1.72,0-.8,0-1.61,0-2.41,0-.32-.01-.65-.02-.97,0-.18-.07-.26-.24-.3-.24-.06-.48-.07-.72-.05-.29.02-.59.01-.88.02-.27,0-.54.04-.81.11-.59.15-.94.54-1.11,1.11-.06.21-.08.43-.1.65,0,.1-.05.14-.15.13-.41,0-.34.05-.34-.33,0-.68,0-1.36,0-2.04,0-.17,0-.17.18-.18.71-.03,1.42-.01,2.13,0,1.89.05,3.77.02,5.66.02.64,0,1.29-.03,1.93-.04.21,0,.43.01.64.01.08,0,.11.03.11.11,0,.78,0,1.56,0,2.34,0,.03,0,.07-.02.07-.12.07-.26.03-.38.03-.08,0-.08-.09-.08-.14,0-.18-.05-.35-.09-.53-.16-.74-.61-1.14-1.36-1.26-.67-.11-1.34-.05-2.01-.05-.04,0-.08.01-.12.02-.22.04-.27.1-.29.32,0,.13,0,.25,0,.38,0,1.05,0,2.1,0,3.14h0Z"/>
      <path class="cls-1" d="m65.36,11.02c0,1.09,0,2.17,0,3.26,0,.24.02.48.07.71.11.48.35.7.84.77.19.03.37.05.56.05.13,0,.19.06.18.19-.01.09.04.21-.03.28-.06.07-.17,0-.26,0-1.09,0-2.18-.08-3.27-.03-.52.02-1.04.02-1.56.05-.08,0-.1-.02-.1-.09,0-.05,0-.1,0-.16,0-.22,0-.23.24-.24.29-.02.58-.05.85-.17.24-.11.38-.29.44-.54.05-.19.08-.38.08-.58.02-.71.01-1.41.02-2.12,0-1.03,0-2.06,0-3.09,0-.65,0-1.3-.02-1.95,0-.21-.06-.28-.27-.32-.11-.02-.23-.05-.34-.05-.6.02-1.21-.03-1.81.07-.37.06-.72.19-.98.49-.25.28-.35.62-.41.98-.02.12-.03.24-.03.36,0,.07-.03.12-.11.11,0,0-.02,0-.03,0-.33.01-.35.01-.36-.32-.01-.71,0-1.41,0-2.12,0-.08.04-.12.12-.13.05,0,.1,0,.16,0,.68,0,1.35,0,2.03.02,1.89.05,3.78.02,5.67.02.54,0,1.09-.02,1.63-.03.31,0,.61,0,.92.01.08,0,.12.03.12.11,0,.78,0,1.55,0,2.33,0,.08-.03.11-.12.12-.33.01-.33.02-.38-.31-.03-.24-.09-.48-.18-.71-.22-.56-.67-.81-1.23-.92-.68-.13-1.37-.07-2.06-.04-.33.01-.36.14-.37.37-.02.66,0,1.33-.01,1.99,0,.54,0,1.08,0,1.62h0Z"/>
      <path class="cls-1" d="m53.52,10.98c0,1.11,0,2.23,0,3.34,0,.32,0,.65.15.95.1.22.27.37.51.44.25.08.51.11.78.11.18,0,.19.02.21.19,0,0,0,0,0,.01.03.28.03.29-.25.27-.36-.01-.73.01-1.09-.02-.78-.06-1.57-.04-2.35-.02-.48.02-.95.01-1.43.04-.07,0-.1-.02-.11-.09-.04-.35,0-.39.34-.4.15,0,.29-.02.43-.05.52-.11.74-.34.82-.87.04-.24.06-.48.06-.72,0-2.2,0-4.4,0-6.6,0-.05,0-.1,0-.14,0-.28-.1-.38-.38-.41-.47-.06-.94.01-1.41,0-.26,0-.51.02-.76.08-.68.15-1.1.55-1.24,1.23-.04.19-.07.39-.09.58,0,.07-.04.11-.12.11-.41,0-.37.06-.37-.34,0-.67,0-1.34,0-2.02,0-.19.01-.19.2-.2.68-.03,1.36,0,2.04,0,1.88.05,3.76.02,5.64.02.7,0,1.4-.03,2.1-.04.18,0,.37.01.55.01.09,0,.11.04.11.12,0,.71,0,1.42,0,2.13,0,.31,0,.3-.31.31-.11,0-.17-.03-.17-.15-.01-.21-.05-.41-.1-.62-.17-.68-.62-1.05-1.3-1.17-.72-.13-1.44-.08-2.16-.03-.21.01-.27.09-.28.3-.04.85,0,1.69-.02,2.54,0,.36,0,.72,0,1.07Z"/>
    </g>
  </g>
</svg>