<?xml version="1.0" encoding="utf-8"?>
<!-- Generator: Adobe Illustrator 27.7.0, SVG Export Plug-In . SVG Version: 6.00 Build 0)  -->
<svg version="1.1" id="Capa_1" xmlns="http://www.w3.org/2000/svg" xmlns:xlink="http://www.w3.org/1999/xlink" x="0px" y="0px"
	 viewBox="0 0 600 280" style="enable-background:new 0 0 600 280;" xml:space="preserve">
<style type="text/css">
	.st0{clip-path:url(#SVGID_00000060743521136275107050000001542635158199260585_);}
	.st1{fill:#FFFFFF;}
	.st2{fill:#7A79F8;}
</style>
<g>
	<defs>
		<rect id="SVGID_1_" x="85.2" y="104.3" width="429.6" height="71.4"/>
	</defs>
	<clipPath id="SVGID_00000102545576756395604450000013038676599702722433_">
		<use xlink:href="#SVGID_1_"  style="overflow:visible;"/>
	</clipPath>
	<g style="clip-path:url(#SVGID_00000102545576756395604450000013038676599702722433_);">
		<path class="st1" d="M180.4,105.3l-14.6,18.5h-26v0.5l-21.6,21.5v-22H85.2l14.6-18.5H180.4z"/>
		<path class="st1" d="M414.5,154.5c0,0.9-0.1,1.8-0.3,2.7c-1.8,10.4-14,18.5-28.8,18.5h-68.2l13.3-18.5h53.8c3.7,0,6.8-2.1,6.8-4.6
			s-3-4.6-6.8-4.6h-37.2c-12.9,0-23.8-6.2-27.6-14.7c-0.9-2.1-1.4-4.3-1.4-6.6c0-1,0.1-1.9,0.2-2.8c1.8-10.1,13.2-18,27.3-18.5h64.4
			l-13.3,18.5H346c-3.7,0-6.8,2.1-6.8,4.7c0,2.6,3,4.7,6.8,4.7h39.5c12.9,0,23.9,6.2,27.7,14.7C414,150.1,414.5,152.2,414.5,154.5
			L414.5,154.5z"/>
		<path class="st2" d="M139.9,135.8v6.9l-21.6,21.5v-6.9l0.2-0.2L139.9,135.8z"/>
		<path class="st2" d="M139.9,154.4v21.3h-21.4L139.9,154.4z"/>
		<path class="st1" d="M238.5,157.2l-15.8-21.1l-4.9-6.5l-4.7,6.6l-15,21l-13.3,18.5h-26l13.3-18.5l23.9-33.3l9.2-12.8
			c6.5-9.1,20.1-9,26.4,0.2l8.8,12.6l23.2,33.3l12.9,18.5h-82.1l13.3-18.5H238.5z"/>
		<path class="st1" d="M306.7,105.3H284v70.3h22.7V105.3z"/>
		<path class="st1" d="M514.8,105.3v40.6c0,3.3-0.2,7.3-1.4,11.2c-1.1,3.6-3.2,7.2-7,10.3c-3.9,3.3-9,5.3-14.3,6.5
			c-4.6,1.1-9.4,1.6-13.7,1.7h-20.7c-4.3-0.2-9.1-0.7-13.7-1.7c-5.3-1.2-10.4-3.2-14.3-6.5c-3.8-3.1-5.9-6.7-7-10.3
			c-1-3.2-1.3-6.5-1.4-9.4v-42.5h22.7v39.1c0,2.2,0.1,6,3.1,9c3,3,6.4,3.6,10.4,3.7c1.7,0,3.5,0,5.4,0h10.3c1.9,0,3.7,0,5.4,0h0.1
			c4,0,7.3-0.8,10.3-3.7c2.6-2.6,3.1-5.9,3.1-8.1c0-0.3,0-0.6,0-0.9v-39.1H514.8L514.8,105.3z"/>
	</g>
</g>
</svg>
