<?xml version="1.0" encoding="UTF-8"?>
<svg id="Capa_2" data-name="Capa 2" xmlns="http://www.w3.org/2000/svg" viewBox="0 0 126.15 28.09">
  <defs>
    <style>
      .cls-1 {
        fill: #fff;
      }
    </style>
  </defs>
  <g id="Capa_1-2" data-name="Capa 1">
    <g>
      <path class="cls-1" d="m29.46,19.95c-2.03,0-4.07,0-6.1,0-.41,0-.43.02-.36.41.15.77.43,1.49.92,2.12.67.84,1.56,1.27,2.6,1.39.53.06,1.06.05,1.59-.06.92-.2,1.64-.67,2.09-1.51.12-.21.26-.29.5-.29,1.56,0,3.11,0,4.67,0,.04,0,.09,0,.13,0,.22.02.25.05.2.27-.04.18-.1.37-.16.54-.53,1.44-1.48,2.57-2.72,3.46-1.43,1.02-3.03,1.56-4.77,1.7-1.71.14-3.38-.04-4.97-.68-2.45-.97-4.12-2.72-5.05-5.19-.38-1.01-.57-2.05-.64-3.12-.12-1.82.18-3.57.96-5.22,1.04-2.18,2.7-3.72,4.97-4.57,1.22-.46,2.5-.64,3.8-.58,1.99.08,3.83.63,5.39,1.92,1.47,1.21,2.38,2.77,2.92,4.56.43,1.44.61,2.91.6,4.41,0,.42-.02.43-.43.43-2.06,0-4.11,0-6.17,0Zm-2.84-3.75c1.11,0,2.22,0,3.33,0,.35,0,.38-.05.32-.39-.07-.39-.19-.78-.36-1.14-.4-.84-1.01-1.47-1.91-1.79-.5-.18-1.02-.21-1.54-.17-1.18.09-2.12.61-2.76,1.62-.31.49-.51,1.03-.65,1.6-.06.24-.04.27.21.28.08,0,.16,0,.23,0,1.04,0,2.09,0,3.13,0Z"/>
      <path class="cls-1" d="m99.3,11.58c.11-.07.17-.19.25-.3.84-1.14,1.9-2,3.28-2.38,1.86-.51,3.68-.39,5.38.59,1.41.82,2.24,2.09,2.7,3.63.23.79.34,1.61.34,2.43,0,3.79,0,7.58,0,11.37q0,.57-.57.57c-1.52,0-3.04,0-4.57,0-.52,0-.52,0-.52-.52,0-3.37,0-6.73,0-10.1,0-.41,0-.82-.08-1.23-.33-1.67-1.61-2.48-3.26-2.25-1.44.2-2.23,1.14-2.63,2.47-.12.41-.17.83-.17,1.25,0,2.93,0,5.87,0,8.8,0,.4,0,.8,0,1.2,0,.32-.05.37-.37.37-1.64,0-3.29,0-4.93,0-.31,0-.35-.05-.36-.35,0-.33,0-.67,0-1,0-5.48,0-10.95-.01-16.43q0-.56.57-.56c1.47,0,2.93,0,4.4,0,.49,0,.51.01.51.5,0,.59,0,1.18,0,1.77,0,.05-.01.11.06.16Z"/>
      <path class="cls-1" d="m73.21,18.35c-.03-1.6.3-3.11,1-4.53.8-1.64,1.99-2.94,3.57-3.85,1.5-.86,3.11-1.27,4.84-1.31,1.46-.03,2.88.17,4.24.72,2.79,1.15,4.6,3.2,5.4,6.11.71,2.57.52,5.1-.68,7.49-1.39,2.76-3.68,4.35-6.7,4.92-1.71.32-3.41.24-5.07-.28-2.86-.89-4.85-2.74-5.95-5.54-.39-1.01-.69-2.4-.65-3.74Zm13.69.15c0-.63-.01-1.11-.09-1.6-.12-.79-.33-1.54-.74-2.23-.48-.81-1.16-1.39-2.08-1.66-.49-.14-.99-.14-1.49-.12-.98.05-1.79.46-2.42,1.22-.51.61-.79,1.33-.97,2.1-.24,1.02-.26,2.05-.19,3.08.06.83.24,1.65.59,2.41,1.04,2.25,3.84,2.91,5.75,1.35.58-.48.95-1.11,1.21-1.81.34-.93.45-1.9.43-2.75Z"/>
      <path class="cls-1" d="m65.23,27.49c-2.44,0-4.89,0-7.33,0-.52,0-.52,0-.52-.52,0-1.12,0-2.24,0-3.37,0-.24.06-.43.22-.6.69-.76,1.38-1.54,2.07-2.31,1.23-1.38,2.46-2.75,3.68-4.13.78-.88,1.57-1.75,2.35-2.63.06-.07.19-.13.14-.24-.05-.1-.18-.06-.27-.06-2.54,0-5.09,0-7.63,0q-.55,0-.55-.55c0-1.14,0-2.29,0-3.43,0-.1,0-.2,0-.3,0-.13.08-.2.21-.21.09,0,.18,0,.27,0,4.77,0,9.53,0,14.3,0,.5,0,.5,0,.5.49,0,1.18,0,2.36,0,3.53,0,.22-.06.4-.21.57-1.26,1.4-2.52,2.82-3.77,4.23-1.42,1.59-2.84,3.19-4.25,4.78-.03.03-.06.07-.09.1-.06.09-.04.15.07.16.11.01.22,0,.33,0,2.6,0,5.2,0,7.8,0q.52,0,.52.51c0,1.17,0,2.33,0,3.5,0,.46,0,.47-.46.47-2.46,0-4.91,0-7.37,0Z"/>
      <path class="cls-1" d="m9.33,20.77c.09-.06.09-.17.12-.26,1.05-3.45,2.09-6.91,3.14-10.37.07-.24.16-.48.23-.73.05-.2.17-.27.36-.27.06,0,.11,0,.17,0,1.58,0,3.16,0,4.73,0,.48,0,.49.02.34.46-.98,2.82-1.96,5.64-2.94,8.47-.67,1.93-1.34,3.86-2.01,5.79-.38,1.09-.76,2.18-1.14,3.27-.11.32-.14.34-.48.34-1.72,0-3.44,0-5.17,0-.36,0-.37,0-.49-.37-.52-1.49-1.04-2.98-1.56-4.47-1.15-3.3-2.3-6.61-3.45-9.91-.38-1.08-.75-2.16-1.12-3.24-.1-.3-.07-.35.26-.35,1.71,0,3.42,0,5.13,0,.3,0,.33.02.42.32.59,1.96,1.19,3.91,1.78,5.87.54,1.78,1.08,3.55,1.61,5.33.01.04.02.09.07.11Z"/>
      <path class="cls-1" d="m42.76,12.15c.12-.18.21-.32.31-.47.48-.72,1.04-1.36,1.76-1.84.7-.47,1.48-.71,2.31-.77.34-.03.69,0,1.03,0,.15,0,.29.03.43.07.15.04.23.13.23.28,0,.08,0,.16,0,.23,0,1.31,0,2.62,0,3.93,0,.5,0,.49-.5.46-.76-.05-1.51-.06-2.25.14-1.45.39-2.38,1.33-2.83,2.75-.22.68-.29,1.39-.28,2.1,0,2.61,0,5.22,0,7.83,0,.12,0,.24,0,.37,0,.16-.08.25-.25.25-.09,0-.18,0-.27,0-1.56,0-3.11,0-4.67,0-.49,0-.49,0-.49-.51,0-5.78,0-11.55,0-17.33,0-.5,0-.5.5-.5,1.48,0,2.95,0,4.43,0,.48,0,.49.02.49.48,0,.72,0,1.44,0,2.17,0,.11-.02.22.05.36Z"/>
      <path class="cls-1" d="m55.92,18.32c0,2.89,0,5.78,0,8.67,0,.5,0,.51-.49.51-1.57,0-3.13,0-4.7,0-.47,0-.49-.02-.49-.49,0-5.79,0-11.58,0-17.37,0-.47.02-.49.49-.49,1.58,0,3.16,0,4.73,0,.06,0,.11,0,.17,0,.25.02.28.05.29.3,0,.1,0,.2,0,.3,0,2.86,0,5.71,0,8.57Z"/>
      <path class="cls-1" d="m112.54,9.15c.36,0,.71,0,1.07,0,.23,0,.37.08.46.29.54,1.19,1.1,2.38,1.65,3.57.21.45.42.91.63,1.36.04.07.05.19.16.18.09,0,.1-.11.14-.18.35-.75.71-1.51,1.06-2.26.61-1.3,1.21-2.59,1.82-3.89,1-2.15,2.01-4.31,3.01-6.46.23-.49.47-.98.69-1.48.09-.2.22-.28.44-.28.72,0,1.44,0,2.17,0,.07,0,.13,0,.2.01.1.01.13.08.1.17-.03.08-.06.17-.1.25-1.12,2.4-2.25,4.81-3.37,7.21-1.09,2.32-2.17,4.65-3.25,6.97-.52,1.12-1.04,2.24-1.56,3.35-.04.08-.08.16-.12.24-.06.14-.17.2-.32.2-.61,0-1.22,0-1.83,0-.18,0-.28-.09-.36-.25-.21-.45-.42-.91-.63-1.36-.73-1.57-1.46-3.14-2.19-4.71-.4-.87-.81-1.73-1.2-2.6-.13-.29-.1-.34.23-.34.19,0,.38,0,.57,0,.18,0,.36,0,.53,0h0Z"/>
      <path class="cls-1" d="m53.11,2.67c.81,0,1.62,0,2.43,0,.36,0,.39.02.39.37,0,1.43,0,2.86,0,4.3,0,.34-.03.36-.36.36-1.65,0-3.31,0-4.96,0-.32,0-.36-.03-.36-.34,0-1.45,0-2.91,0-4.36,0-.3.04-.33.36-.33.83,0,1.67,0,2.5,0Z"/>
    </g>
  </g>
</svg>