<?xml version="1.0" encoding="UTF-8"?>
<svg id="Capa_2" data-name="Capa 2" xmlns="http://www.w3.org/2000/svg" viewBox="0 0 126.99 29.04">
  <defs>
    <style>
      .cls-1 {
        fill: #fff;
      }
    </style>
  </defs>
  <g id="Capa_1-2" data-name="Capa 1">
    <g>
      <path class="cls-1" d="m9.8,28.99c-2.42,0-4.28-1.07-5.52-3.11-1.34-2.19-2.6-4.42-3.86-6.65-.58-1.03-.55-2.12.04-3.15C2.99,11.69,5.53,7.3,8.07,2.91c.52-.91,1.05-1.82,1.57-2.72.15-.26.18-.26.32,0,.38.66.75,1.32,1.14,1.97.37.62.36,1.23,0,1.86-2.58,4.44-5.14,8.89-7.72,13.34-.15.26-.15.45,0,.71,1.2,2.04,2.37,4.1,3.57,6.15.62,1.06,1.58,1.63,2.8,1.65,1.23.02,2.23-.52,2.86-1.58,1.26-2.12,2.48-4.27,3.72-6.41.07-.12.08-.21,0-.33-.27-.45-.53-.9-.78-1.35-.09-.16-.15-.14-.24,0-1.34,2.32-2.68,4.63-4.01,6.95-.33.57-.76.97-1.44.99-.63.02-1.12-.25-1.44-.8-.95-1.64-1.87-3.31-2.87-4.92-.33-.54-.31-.92,0-1.45,1.79-3.02,3.53-6.07,5.28-9.11.54-.94,1.08-1.87,1.62-2.81.14-.25.16-.25.3,0,.41.7.81,1.4,1.21,2.1.3.53.3,1.08,0,1.61-1.45,2.52-2.9,5.03-4.36,7.55-.23.39-.44.79-.68,1.17-.11.17-.09.3,0,.47.25.41.49.82.72,1.24.12.21.17.17.27,0,.85-1.48,1.71-2.96,2.57-4.45.92-1.59,1.83-3.17,2.75-4.76.16-.28.19-.28.35,0,1.19,2.05,2.38,4.1,3.55,6.16.6,1.06.58,2.16-.02,3.21-1.24,2.16-2.47,4.32-3.74,6.46-1.09,1.84-2.72,2.92-4.86,3.2-.24.03-.49,0-.74,0Z"/>
      <path class="cls-1" d="m37.45,24.19c.37,0,.73,0,1.1,0,.16,0,.23.06.25.22.08.89.6,1.47,1.39,1.8.94.4,1.9.4,2.82-.05.86-.41,1.25-1.14,1.19-2.08-.05-.86-.57-1.39-1.33-1.71-.44-.18-.9-.25-1.37-.25-.9,0-1.77-.15-2.59-.52-1.23-.56-2.07-1.49-2.48-2.77-.5-1.6-.5-3.2.27-4.72.81-1.6,2.17-2.48,3.92-2.75,1.34-.21,2.64,0,3.82.69,1.4.82,2.19,2.07,2.44,3.65.2,1.22.07,2.41-.54,3.51-.32.57-.76,1.02-1.32,1.35-.23.13-.23.14,0,.28,1.04.59,1.71,1.46,1.86,2.66.32,2.53-.98,4.61-3.51,5.27-1.77.46-3.51.34-5.11-.63-1.35-.82-2.07-2.06-2.15-3.65-.01-.25.08-.33.32-.32.34.02.68,0,1.02,0Zm6.81-7.54c.02-.54-.13-1.14-.44-1.69-1-1.8-3.36-1.91-4.47-.18-.79,1.25-.8,2.58-.03,3.84.97,1.57,3.07,1.68,4.23.26.5-.62.72-1.34.71-2.23Z"/>
      <path class="cls-1" d="m124.3,12.72c0-.15,0-.24,0-.33,0-1.73,0-3.46,0-5.19,0-.26.08-.34.33-.34.69.01,1.38.01,2.07,0,.22,0,.29.08.29.3,0,4.93,0,9.86,0,14.79,0,.23-.07.32-.31.31-.67-.01-1.35-.01-2.02,0-.22,0-.31-.08-.31-.3,0-.32-.02-.64-.07-.96-.06-.02-.08.03-.11.05-.84.97-1.91,1.43-3.17,1.46-1.51.04-2.84-.4-3.94-1.45-.98-.93-1.49-2.1-1.62-3.44-.14-1.41.09-2.75.85-3.97.89-1.42,2.21-2.15,3.86-2.33,1.08-.11,2.11.04,3.08.51.4.2.74.48,1.06.86Zm-.25,4.2c0-.75-.21-1.43-.64-2.04-1.15-1.62-3.37-1.67-4.58-.1-1.06,1.37-.94,3.44.28,4.68,1.09,1.11,2.82,1.12,3.92.02.7-.71,1.01-1.58,1.03-2.56Z"/>
      <path class="cls-1" d="m81.34,21.1c0,1.76,0,3.45,0,5.14,0,.44,0,.43-.44.48-.67.07-1.34.13-2.01.22-.19.02-.25-.04-.24-.22,0-.06,0-.12,0-.18,0-4.85,0-9.69,0-14.54,0-.09,0-.17,0-.26,0-.12.05-.19.18-.19.75,0,1.5,0,2.25,0,.17,0,.18.12.19.24.02.34,0,.68.08,1.02.09.02.11-.06.15-.11.81-.9,1.83-1.35,3.02-1.4,1.54-.07,2.92.37,4.05,1.45.98.93,1.48,2.1,1.62,3.44.13,1.25-.05,2.45-.63,3.57-.81,1.57-2.11,2.47-3.85,2.71-.99.14-1.97.07-2.92-.3-.56-.22-1.04-.54-1.46-1.06Zm.25-4.18c0,.68.16,1.24.5,1.82,1.09,1.83,3.51,1.95,4.77.24.97-1.32.87-3.25-.24-4.51-1.1-1.24-2.94-1.27-4.07-.06-.66.7-.95,1.55-.96,2.51Z"/>
      <path class="cls-1" d="m51.29,12.78c.44-.5.89-.88,1.44-1.13,1.44-.66,3.89-.47,5.04.9.65.78.96,1.7,1.09,2.68.08.57.09,1.15.09,1.73,0,1.63,0,3.25,0,4.88q0,.42-.43.42c-.66,0-1.31,0-1.97,0-.25,0-.32-.09-.32-.33,0-1.87.02-3.75-.02-5.62-.02-.95-.36-1.78-1.32-2.19-1.21-.52-2.61-.02-3.24,1.13-.26.47-.38.98-.38,1.52,0,1.7,0,3.41,0,5.11,0,.37,0,.37-.37.37-.67,0-1.35,0-2.02,0-.22,0-.3-.06-.3-.29,0-4.95,0-9.9,0-14.85,0-.21.07-.28.28-.28.7,0,1.4.01,2.1,0,.26,0,.32.09.32.33,0,1.75,0,3.51,0,5.26,0,.09,0,.18,0,.34Z"/>
      <path class="cls-1" d="m98.01,17.91c-1.33,0-2.66,0-3.99,0-.34,0-.36.02-.22.34.48,1.11,1.34,1.71,2.51,1.89,1.26.19,2.38-.17,3.37-.94.12-.09.18-.08.28.02.47.47.94.94,1.42,1.4.16.15.12.24-.02.37-.85.76-1.86,1.2-2.97,1.41-1.69.31-3.32.18-4.81-.75-1.41-.89-2.17-2.2-2.4-3.83-.18-1.3,0-2.55.66-3.7.91-1.59,2.3-2.51,4.12-2.75,1.53-.2,2.96.08,4.23.99,1.27.92,1.91,2.21,2.13,3.73.07.5.11,1.01.08,1.53-.01.24-.11.31-.35.31-1.35,0-2.7,0-4.04,0Zm-1.28-2.1c.92,0,1.84,0,2.76,0,.3,0,.31-.02.2-.3-.45-1.15-1.68-1.98-2.94-1.98-1.26,0-2.52.86-2.96,2.01-.09.24-.07.27.21.27.91,0,1.82,0,2.74,0Z"/>
      <path class="cls-1" d="m110.19,17.91c-1.35,0-2.7,0-4.04,0-.29,0-.3.02-.2.29.45,1.14,1.32,1.75,2.5,1.94,1.24.2,2.36-.14,3.36-.9.14-.1.22-.11.34.01.46.46.92.91,1.39,1.36.16.15.15.24-.01.38-.85.75-1.85,1.19-2.94,1.4-1.42.27-2.82.22-4.16-.39-1.76-.81-2.76-2.2-3.05-4.1-.22-1.43-.01-2.81.79-4.05.93-1.45,2.27-2.28,3.98-2.5,1.55-.2,2.99.09,4.27,1.03,1.16.85,1.77,2.04,2.04,3.43.12.62.1,1.24.11,1.86,0,.25-.15.24-.32.24-1.35,0-2.7,0-4.04,0Zm-1.29-2.1c.91,0,1.82,0,2.74,0,.33,0,.34-.02.21-.33-.47-1.17-1.76-2.03-3.01-1.94-1.35.09-2.32.76-2.88,2-.11.25-.09.27.18.27.92,0,1.84,0,2.76,0Z"/>
      <path class="cls-1" d="m72.59,22.57c-1.69-.04-3.21-.51-4.55-1.55-.18-.14-.21-.24-.06-.43.36-.43.7-.88,1.04-1.33.11-.14.2-.18.36-.07,1.08.77,2.3,1.05,3.6.99.36-.01.71-.06,1.04-.22.29-.13.52-.32.61-.65.13-.46-.04-.83-.5-1.05-.43-.21-.9-.26-1.36-.31-.9-.09-1.8-.17-2.65-.51-1.02-.4-1.71-1.1-1.97-2.18-.34-1.44.37-2.78,1.82-3.44,1.15-.53,2.36-.62,3.6-.51,1.14.1,2.17.48,3.07,1.2.17.13.21.22.05.4-.41.45-.8.91-1.19,1.37-.13.15-.21.15-.37.03-1.1-.87-2.35-.97-3.66-.62-.56.15-.8.56-.7,1.05.05.27.22.45.45.59.36.2.75.27,1.15.3.82.06,1.65.1,2.46.31.35.09.68.22,1,.38.97.49,1.41,1.32,1.49,2.37.16,2.04-1.27,3.12-2.62,3.56-.69.23-1.41.3-2.13.31Z"/>
      <path class="cls-1" d="m61.65,16.76c0-.86,0-1.72,0-2.58,0-.24-.08-.31-.31-.3-.46.02-.92,0-1.38,0-.22,0-.32-.05-.32-.3.02-.59.01-1.18,0-1.76,0-.21.07-.29.28-.28.49.01.97,0,1.46,0,.2,0,.27-.06.27-.26,0-.69,0-1.38,0-2.07,0-.24.07-.34.3-.36.71-.07,1.42-.14,2.13-.22.23-.03.31.04.31.28-.01.76,0,1.52,0,2.27q0,.36.35.36c.56,0,1.13,0,1.69,0,.21,0,.3.06.27.28-.07.62-.14,1.25-.2,1.88-.02.16-.11.19-.25.19-.55,0-1.09,0-1.64,0-.21,0-.26.07-.26.27,0,1.66,0,3.32,0,4.98,0,.18.02.36.06.53.11.52.51.79,1.04.72.26-.04.52-.11.75-.24.16-.09.25-.08.34.09.23.45.48.9.73,1.35.07.13.05.21-.08.29-.62.37-1.29.59-2,.64-.44.03-.89.03-1.32-.07-1.21-.29-1.88-1.07-2.1-2.27-.07-.37-.1-.74-.1-1.12,0-.77,0-1.53,0-2.3,0,0,0,0,0,0Z"/>
      <path class="cls-1" d="m27.21,14.58c0-2.45,0-4.91,0-7.36,0-.36,0-.36.35-.36.64,0,1.28,0,1.92,0q.41,0,.41.4c0,1.79,0,3.58,0,5.37,0,3.08,0,6.17,0,9.25q0,.39-.39.39c-.63,0-1.26,0-1.89,0q-.4,0-.4-.41c0-2.43,0-4.86,0-7.28Z"/>
      <path class="cls-1" d="m34.66,16.9c0,1.67,0,3.34,0,5.01,0,.35,0,.35-.36.35-.68,0-1.36,0-2.05,0-.21,0-.29-.06-.29-.28,0-3.38,0-6.76,0-10.14,0-.23.08-.29.3-.29.7,0,1.4.01,2.1,0,.25,0,.3.09.3.32,0,1.68,0,3.36,0,5.03Z"/>
      <path class="cls-1" d="m33.31,9.74c-.87,0-1.58-.72-1.57-1.58.01-.86.72-1.56,1.57-1.56.86,0,1.59.73,1.59,1.58,0,.87-.71,1.57-1.59,1.56Z"/>
    </g>
  </g>
</svg>