<?xml version="1.0" encoding="utf-8"?>
<!-- Generator: Adobe Illustrator 24.0.1, SVG Export Plug-In . SVG Version: 6.00 Build 0)  -->
<svg version="1.1" id="Capa_1" xmlns="http://www.w3.org/2000/svg" xmlns:xlink="http://www.w3.org/1999/xlink" x="0px" y="0px"
	 viewBox="0 0 114 42" style="enable-background:new 0 0 114 42;" xml:space="preserve">
<style type="text/css">
	.st0{fill:#EBEBE0;}
</style>
<path class="st0" d="M99.5,42c9.5,0,13.7-3.9,13.7-10.1c0-4.8-2.6-8.2-11.7-10c-6.2-1.1-7-2.4-7-4.1c0-1.7,1.5-2.8,4.2-2.8
	c3.1,0,4.7,1.6,5.4,5l8.7-1.9c-1.2-5.9-4.9-9.7-14.1-9.7c-8.9,0-13.3,3.7-13.3,9.8c0,5.2,3,8.2,11.9,10.1c5.7,1.1,6.9,2.1,6.9,3.9
	c-0.1,1.9-1.5,3-4.5,3c-3.9,0-5.8-2.1-6.6-5.6l-8.5,1.7C85.5,37.1,88.7,42,99.5,42z M83,9.3h-9.2v31.8H83V9.3z M83.1,0h-9.5v6h9.5V0
	z M70.5,0h-9.2v41.1h9.2V0z M49,41.1h9.1V21.4c0-8.1-4-12.8-13.7-12.8c-9.8,0-13.7,4.8-14.5,11.4l8.6,1.2c0.6-3.7,2.5-5,5.6-5
	c3.5,0,4.9,1.9,4.9,5.3v1.3h-8.2c-8.4,0-11.8,3.9-11.8,9.7c0,6.2,4.2,9.2,9.7,9.2c5.4,0,8.8-3,10.2-8.4H49V41.1z M42.6,34.4
	c-3.5,0-4.7-1.5-4.7-3.5c0-1.7,1.6-2.9,4.3-2.9h6.8v0.9C49,32.1,46.5,34.4,42.6,34.4z M0,10h11.6v31.1h9.7V10h11.5V0.9H0V10z"/>
</svg>
